<svg width="641" height="729" viewBox="0 0 641 729" fill="none" xmlns="http://www.w3.org/2000/svg">
<path fill-rule="evenodd" clip-rule="evenodd" d="M242.5 271C247 274.576 248.5 274.576 252 278.7C251.4 282.911 251.123 281.341 249.053 285.031C247.367 288.035 245.444 290.967 242.837 293.219C247.478 297.552 252.295 301.726 257.235 305.69C262.624 310.014 268.292 314.001 274.15 317.664C279.287 320.877 284.656 323.724 289.498 327.39C294 330.798 298.102 334.898 300.189 340.249C302.412 345.947 301.446 351.832 299.809 357.527L299.621 358.171C297.948 363.812 295.052 370.613 299.067 375.929C301.111 378.635 304.083 380.551 306.648 382.714C308.929 384.637 311.069 386.728 313.032 388.974C317.312 393.871 320.793 399.38 322.99 405.519L323.187 406.076C325.07 411.511 326.446 418.168 323.901 423.503C323.171 425.033 320.817 424.536 320.408 423.046C319.484 419.673 319.532 416.139 318.757 412.718C317.951 409.16 316.608 405.782 314.856 402.587C311.464 396.405 306.871 391.124 301.445 386.66L299.82 385.338C295.587 381.862 291.697 378.174 290.838 372.42C289.919 366.264 292.383 360.4 293.968 354.574C295.072 350.514 295.433 346.622 294.24 342.952C292.782 345.334 290.792 347.594 289.219 349.611C286.085 353.628 282.922 357.62 279.767 361.62C276.532 365.722 273.377 369.888 270.372 374.163C269.028 376.075 267.698 377.998 266.373 379.924C265.377 381.371 263.987 382.817 262.901 384.293C263.165 385.082 263.145 385.992 262.666 386.639C256.906 394.427 248.711 378.177 246.574 374.071C242.222 365.71 238.982 356.828 234.616 348.469C230.091 339.803 224.938 331.369 219.196 323.458C215.722 318.673 211.829 314.178 208.651 309.241C201.165 316.034 191.314 320.587 182.265 324.717C172.323 329.253 161.995 332.959 151.802 336.894L148.791 338.064C131.228 344.923 113.236 352.459 98.638 364.641C81.4839 378.958 71.3355 398.912 63.7803 419.575C55.0832 443.362 47.888 467.792 41.1807 492.206C37.7484 504.697 34.4917 517.245 31.43 529.833C28.732 540.924 26.4956 552.124 23.3725 563.1C29.7066 562.876 36.9306 565.33 42.3384 566.039C66.9844 569.267 91.2986 574.413 114.567 583.322C117.442 584.423 118.273 587.295 117.647 589.624C119.305 589.155 120.961 588.681 122.619 588.215C120.803 585.431 121.669 580.453 121.812 577.367L121.821 577.155C121.968 573.042 122.413 568.925 122.703 564.821C123.253 556.996 123.97 549.228 124.923 541.448L125.166 539.502C126.246 531.038 127.044 522.524 128.223 514.074L128.362 513.107C127.797 510.945 127.139 508.809 126.448 506.683C124.608 501.019 122.011 495.688 119.736 490.203C119.467 489.557 120.387 489.186 120.816 489.573C124.671 493.043 127.732 497.445 130.192 502.048C130.235 501.831 130.272 501.613 130.317 501.396L130.597 500.014C131.289 496.643 132.131 493.096 134.198 490.361C134.418 490.071 134.853 490.01 135.062 490.361C137.04 493.711 137.261 497.952 137.565 501.763C137.909 506.075 137.953 510.441 137.892 514.764C137.773 523.213 137.178 531.685 136.704 540.12C136.239 548.41 135.326 556.593 134.148 564.801L133.925 566.34C133.349 570.246 132.878 574.202 132.119 578.081L131.905 579.138C131.499 581.062 131.249 583.775 130.441 586.028C151.224 580.228 172.038 574.56 192.891 568.991C207.963 564.966 223.051 561.001 238.133 557.011C238.928 555.576 239.919 554.235 241.156 553.037C245.231 549.089 250.63 547.327 255.583 550.367C255.985 550.614 256.019 551.246 255.583 551.485C254.634 552.004 253.683 552.536 252.749 553.091L261.805 550.636C268.574 548.801 275.424 546.507 282.352 545.227C295.112 538.926 308.836 534.365 322.278 529.857L323.862 529.321C330.745 526.973 337.864 524.345 344.975 523.043C350.181 522.09 356.292 523.24 358.385 528.577C361.036 530.324 363.529 532.378 365.935 534.398C367.675 535.858 369.343 537.41 371.038 538.921L371.351 539.196C372.737 540.399 373.836 541.206 374.176 543.121C374.352 544.111 373.723 545.449 372.503 545.318C368.771 544.918 365.737 540.589 363.206 538.004C361.25 536.006 359.279 533.94 357.494 531.744C356.454 532.311 355.028 532.209 354.365 530.954C350.931 524.447 341.523 528.956 336.318 530.499L328.862 532.708C325.133 533.814 321.407 534.925 317.686 536.056C307.462 539.163 297.287 542.64 286.969 545.494C287.892 546.509 287.765 548.315 286.012 549.002C277.935 552.173 269.075 553.813 260.685 555.989C255.387 557.364 250.093 558.747 244.8 560.138C243.893 561.609 243.24 563.274 242.965 565.211C241.955 572.334 243.903 580.552 245.801 587.442L246.086 588.47C247.646 594.009 249.941 600.799 254.717 604.296C255.883 605.149 257.367 605.743 258.863 605.877C268.212 601.062 277.56 596.247 286.914 591.442C288.647 590.551 290.248 591.757 290.637 593.19C293.935 592.648 297.225 591.795 300.223 590.777C305.258 589.066 309.191 585.802 313.912 583.544C323.047 579.178 332.375 584.541 340.554 588.619L342.439 589.546C346.107 591.327 353.737 594.748 355.497 589.878C357.199 585.166 351.818 580.13 348.342 578.01C344.199 575.481 339.375 574.128 334.693 573.001C332.02 572.357 329.314 571.832 326.591 571.449C323.503 571.014 320.314 571.079 317.34 570.077C315.863 569.58 315.636 567.232 317.34 566.844C321.917 565.801 327.38 566.938 332.156 568.1L334.652 568.716C339.465 569.897 344.323 571.38 348.706 573.737C351.893 575.452 355.257 578.056 357.455 581.244C359.363 579.47 361.738 579.53 364.212 580.188L365.555 580.562C367.773 581.177 369.57 581.6 371.728 581.174C372.016 579.603 372.308 578.032 372.621 576.46C375.696 561.014 379.068 545.626 382.789 530.32C389.207 503.921 396.634 477.81 405.006 451.968L405.847 449.384C407.778 443.473 409.332 437.033 412.445 431.603C415.389 426.468 420.107 423.511 425.711 421.944C432.072 420.167 438.755 419.237 445.243 418.037C446.691 417.769 448.142 417.515 449.591 417.252C448.367 415.04 447.453 412.529 446.63 410.602L446.485 410.269C444.717 406.234 443.128 402.127 441.594 397.998L440.447 394.894C437.677 387.419 434.818 380.067 430.924 373.076C426.825 365.719 421.387 359.704 414.608 354.725C400.787 344.574 384.129 339.396 370.724 328.547C370.174 328.103 370.879 327.343 371.436 327.624C380.488 332.175 390.259 335.27 399.674 338.975L401.531 339.708C408.972 342.66 416.529 345.873 422.97 350.653C430.151 355.982 435.806 362.6 440.057 370.47C444.246 378.228 446.926 386.912 449.882 395.198L450.672 397.406C451.865 400.717 453.096 404.017 454.507 407.239C455.627 409.797 457.717 412.717 458.667 415.639C461.267 415.188 463.866 414.736 466.468 414.301C522.827 404.885 579.816 399.352 636.931 397.734C639.166 397.67 640.321 399.804 639.992 401.755C634.511 434.187 629.64 466.731 624.296 499.189C621.963 513.354 619.583 527.51 617.148 541.658C615.914 548.826 614.488 555.966 613.32 563.145C612.377 568.942 611.692 574.785 610.073 580.448C608.62 585.526 606.391 590.422 602.731 594.296C598.785 598.471 593.277 600.493 587.733 601.448C573.66 603.872 559.224 604.861 545.036 606.476L469.499 615.075C470.603 625.115 470.686 634.999 470.179 645.156L469.891 650.701C469.655 655.161 469.373 659.627 468.732 664.041C467.93 669.578 465.399 674.267 461.67 678.402C458.247 682.2 454.087 685.441 450.042 688.546C445.842 691.77 441.503 694.883 436.566 696.876L435.925 697.131C431.593 698.823 423.468 701.444 417.547 700.486C418.321 704.366 419.819 708.538 418.491 712.378C417.875 714.16 415.545 715.05 414.118 713.533C411.29 710.526 411.069 706.555 410.4 702.633C409.703 698.551 409.102 694.455 408.568 690.349C407.536 682.41 406.733 674.398 406.488 666.391C406.235 658.169 406.333 649.936 406.775 641.722C407.003 637.504 407.285 633.289 407.82 629.098C408.048 627.311 408.282 625.522 408.548 623.739C408.646 623.089 408.753 622.442 408.869 621.796L402.09 622.562C391.694 623.723 381.293 624.772 370.823 624.935C369.584 624.954 368.63 624.389 368.006 623.566C367.342 624.649 366.186 625.423 364.529 625.417C349.909 625.362 336.294 620.578 322.996 614.94C316.293 612.098 309.694 609.02 302.981 606.202C296.716 603.571 290.017 601.694 283.902 598.731L267.835 607.164C267.717 607.579 267.566 607.971 267.406 608.299C266.36 610.436 264.297 611.595 262.19 612.468C260.168 613.308 258.074 613.569 256.034 613.356C243.849 619.746 231.661 626.13 219.464 632.499L207.265 638.862C182.959 651.526 158.75 664.397 134.292 676.763L132.491 677.67C124.043 681.909 114.971 686.206 105.596 689.412C105.429 691.787 105.535 694.096 105.733 696.61L105.781 697.157C106.061 700.127 106.66 703.849 104.279 705.963C103.041 707.063 100.828 707.067 99.9857 705.409C98.4574 702.403 99.8296 697.663 100.314 694.396C100.486 693.235 100.695 692.04 101.005 690.882C90.2569 694.084 79.1835 695.636 68.2462 693.838C57.5974 692.089 49.3499 685.376 42.7009 677.165C35.6839 668.501 30.6975 658.403 28.0221 647.578C24.9773 635.26 24.7785 622.54 24.85 609.922C24.9259 596.487 25.4226 582.985 27.0557 569.64C25.2665 569.219 23.2822 568.855 21.4741 568.981C20.5786 570.415 18.8414 571.018 17.2717 570.832C13.8582 574.599 22.5164 578.449 25.2834 579.413C26.2442 579.748 26.1413 581.31 25.0332 581.263L24.3351 581.229C20.0597 581.002 15.6426 580.271 13.1288 576.295C11.1144 573.109 11.7196 569.333 14.1209 566.735C15.707 551.728 19.4987 537.116 23.0276 522.477C26.4906 508.109 30.3419 493.834 34.4239 479.63L36.254 473.273C42.6811 451.002 49.399 428.551 58.2646 407.165C62.6916 396.486 67.7915 386.004 74.7045 376.693C81.1483 368.013 88.7562 360.586 97.501 354.243C113.803 342.416 132.933 335.27 151.728 328.462L152.569 328.157C162.31 324.631 172.026 321.064 181.655 317.244C190.171 313.866 198.329 309.583 206.805 306.154C206.53 305.653 206.264 305.148 206.008 304.636L205.851 304.768C205.825 304.789 205.797 304.81 205.768 304.829C204.916 305.421 203.661 305.13 202.959 304.467C200.976 302.594 201.647 300.515 202.971 298.573L203.143 298.326C204.763 296.056 206.207 293.656 207.701 291.304L208.637 289.833C211.146 285.904 213.782 281.948 217.127 278.7C218.676 277.196 220.371 276.07 222.168 275.231C222.015 274.906 223.362 274.241 223.744 274.576C229.436 272.491 235.985 272.928 242.191 273.502M465.844 615.491L457.93 616.391C449.223 617.383 440.512 618.341 431.8 619.291L412.878 621.348C412.83 622.428 412.699 623.483 412.675 624.298C412.551 628.501 412.459 632.706 412.372 636.91C412.197 645.337 412.389 653.772 412.943 662.182C413.481 670.332 414.188 678.483 415.288 686.577L415.513 688.195L415.644 689.046C416.541 689.133 417.423 689.56 418.156 690.436C419.757 692.348 425.552 690.49 427.815 689.684C431.537 688.358 435.042 686.119 438.277 683.874C441.435 681.681 444.279 679.125 447.012 676.432L449.248 674.219C451.472 672.007 453.699 669.651 455.062 666.868C456.91 663.095 457.149 658.464 457.691 654.355C458.358 649.3 459.153 644.247 459.993 639.217M236.089 562.436L235.268 562.652C205.447 570.581 175.67 578.744 145.757 586.323C130.954 590.075 116.081 593.553 101.26 597.233L98.8605 597.833C87.1681 600.79 75.3355 604.349 66.3817 612.836C66.0512 613.148 65.5714 612.668 65.8825 612.336C75.5323 602.057 89.2566 597.705 102.434 593.933C104.87 593.236 107.309 592.555 109.745 591.861C91.8241 585.468 73.6202 579.906 54.996 575.94C50.2003 574.918 45.3487 574.168 40.5567 573.142C37.2148 572.427 33.951 571.393 30.6444 570.535L28.0434 569.88L28.0089 578.106C27.9656 589.756 27.9863 601.397 28.5803 613.046L28.6927 615.204C29.3857 628.168 30.4675 641.401 35.0649 653.624C38.8007 663.557 44.7554 672.915 52.5426 680.15C56.4829 683.81 60.7193 686.66 65.9559 688.067C70.8181 689.373 75.9123 689.526 80.9106 689.178C104.886 687.504 126.227 674.472 147.053 663.682C181.117 646.033 215.186 628.393 249.284 610.812C248.363 610.181 247.495 609.454 246.705 608.638C242.133 603.912 239.721 597.443 238.136 591.179C236.45 584.51 235.442 577.363 235.324 570.479M279.476 617.625C279.777 617.463 280.126 617.665 280.14 618.005C280.245 620.612 278.806 623.182 277.73 625.53L277.617 625.78C276.31 628.688 274.88 631.558 273.4 634.382C270.443 640.024 267.371 645.606 264.163 651.109C257.714 662.18 250.547 672.784 242.075 682.424C240.162 684.601 237.015 681.809 238.243 679.465C244.163 668.162 251.065 657.491 258.169 646.912C261.726 641.615 265.28 636.314 268.871 631.041C270.37 628.841 271.887 626.649 273.446 624.49L274.386 623.198M633.155 404.207C603.229 405.111 573.339 407.064 543.556 410.125C515.858 412.971 488.261 416.759 460.82 421.482C455.089 422.469 449.364 423.496 443.647 424.563L440.218 425.208C434.499 426.293 427.514 426.74 422.423 429.797C417.055 433.019 415.604 439.754 413.818 445.308C411.719 451.84 409.672 458.39 407.681 464.957C399.774 491.027 392.551 517.324 386.108 543.794C382.91 556.933 380.072 570.146 377.082 583.333C374.425 595.049 371.494 606.633 368.431 618.233C368.809 617.939 369.272 617.715 369.831 617.596C385.037 614.359 400.56 612.951 415.994 611.163L417.488 610.989C433.454 609.11 449.42 607.245 465.396 605.447L571.169 593.544C577.407 592.843 584.09 592.747 590.16 591.072C600.482 588.223 602.901 576.676 604.633 567.481L604.685 567.203C609.906 539.419 614.062 511.393 618.931 483.539M370.893 585.935C366.786 585.664 361.166 581.9 358.05 582.17C359.686 584.916 360.424 588.048 359.482 591.393C356.858 600.701 344.995 595.885 339.28 593.042C334.595 590.709 330.071 587.855 324.884 586.762C319.007 585.526 315.026 587.864 310.062 590.56C305.984 592.773 301.543 594.363 296.976 595.185C294.548 595.624 292.242 595.67 289.939 595.499C289.801 595.612 289.645 595.717 289.466 595.811L288.249 596.45C293.755 596.702 299.365 598.403 304.49 599.96C309.8 601.573 315.014 603.517 320.199 605.505L325.301 607.467C337.885 612.289 350.911 616.868 364.529 616.828C365.508 616.826 366.31 617.097 366.942 617.539M347.917 556.77C351.974 556.273 355.719 556.805 358.961 559.448C362.87 562.635 365.497 567.92 371.117 568.267C372.756 568.368 373.136 570.674 371.508 571.156C367.324 572.395 363.937 570.13 361.087 567.189L359.17 565.186C356.353 562.267 353.756 560.011 348.976 560.185C343.857 560.372 338.73 561.556 333.644 562.158C327.883 562.839 322.124 563.42 316.345 563.922C316.076 563.945 316.03 563.522 316.282 563.46L322.755 561.848M344.001 540.173L344.67 540.106C350.561 539.534 355.949 539.511 361.211 542.683L362.22 543.293C366.963 546.178 372.126 549.577 375.093 554.249C375.578 555.013 374.776 555.913 373.964 555.718C368.263 554.349 364.095 550.163 359.3 547.03C353.919 543.515 348.361 544.095 342.226 544.641C336.285 545.17 330.348 545.896 324.466 546.887C318.939 547.817 313.395 549.286 307.812 549.754L307.813 549.743C307.176 549.741 306.812 548.783 307.462 548.458C313.128 545.627 319.69 544.287 325.852 542.994M142.274 379.874C142.267 379.408 142.922 379.233 143.151 379.637C146.984 386.385 148.988 394.657 151.03 402.091C153.168 409.879 154.895 417.746 156.446 425.671C159.587 441.718 161.261 457.673 161.374 474.029C161.39 476.364 157.588 476.985 157.216 474.592C154.747 458.683 152.382 442.758 149.894 426.853C148.642 418.853 147.185 410.885 145.791 402.909M180.221 391.628C179.939 390.697 181.292 390.386 181.638 391.237C189.331 410.132 191.936 431.545 186.997 451.48C186.242 454.529 181.778 453.208 182.348 450.197M279.445 374.838C279.407 374.142 280.31 374.032 280.651 374.511C284.296 379.65 285.808 386.533 292.203 389.189C295.395 390.515 298.988 390.284 301.809 392.523C303.695 394.021 305.141 396.386 303.726 398.655C303.269 399.388 301.991 399.755 301.372 398.958C300.467 397.798 299.989 396.409 298.76 395.539C297.027 394.312 294.691 394.236 292.704 393.659C290.134 392.914 287.869 391.609 286.013 389.67M340.5 298.5C340.876 298.309 340.76 299.175 341 299.5C341.343 299.963 342.42 299.182 342 299.5C342.561 300.648 343.484 303.447 343 299C343.384 300.697 343.308 298.437 343.735 300.122C344.597 303.522 345.352 306.948 346.214 310.348C347.128 313.953 348.218 317.52 349.43 321.035C349.508 321.262 349.594 321.494 349.684 321.73L349.823 322.086L350 322.5V323C350 323 350 323 350.359 323.451L350.486 323.787C351.279 325.923 351.822 328.172 350.367 330.056C349.823 330.761 349.224 331.178 348.477 331.303C347.281 335.25 345.779 339.124 344.172 342.844L343.701 343.931C341.337 349.359 338.815 354.716 335.05 359.338C330.94 364.383 325.286 367.828 321.706 373.357C320.04 375.929 318.881 378.633 317.941 381.537L317.587 382.64C316.919 384.694 316.149 386.685 314.223 387.89C313.608 388.274 312.688 388.152 312.192 387.628C308.243 383.448 312.377 375.642 314.759 371.595C318.069 365.967 322.859 362.367 327.656 358.121C332.827 353.544 336.125 347.421 339.315 341.39C341.27 337.695 343.156 333.92 345.142 330.209C343.067 328.374 342.403 324.728 341.7 322.194L341.636 321.967C340.474 317.909 339.551 313.746 338.967 309.565C338.406 305.544 338.172 301.581 338.32 297.538L338.363 296.509M348.055 308.259C347.596 307.63 348.355 306.918 348.984 307.049C352.809 307.841 356.548 310.157 359.98 312.03L360.347 312.229C363.087 313.708 365.844 315.519 367.282 318.391C368.847 321.513 368.718 325.109 368.505 328.501L368.485 328.819C368.223 332.887 368.181 337.114 367.321 341.109C366.88 343.154 365.03 343.73 363.447 343.247C361.565 349.195 356.276 353.578 352.413 358.272C347.487 364.257 348.414 372.337 348.929 379.544C349.137 382.462 345.51 383.292 343.642 381.735L339.336 378.156C338.619 377.559 337.903 376.961 337.189 376.36C336.577 375.845 335.971 375.326 335.37 374.801L334.472 374.007C334.074 373.651 332.317 371.687 331.804 371.606C330.56 371.408 327.604 374.689 326.592 375.718L326.464 375.846C324.56 377.714 322.84 379.724 321.238 381.856C320.943 382.248 320.367 381.923 320.577 381.47C322.013 378.393 323.683 375.45 325.665 372.696L326.065 372.148C327.384 370.369 329.155 367.229 331.483 366.704C334.325 366.063 337.164 368.915 339.232 370.498L339.363 370.598C340.347 371.336 341.319 372.088 342.29 372.845C342.189 367.479 342.866 362.057 345.635 357.432C347.587 354.171 350.512 351.755 353.015 348.953C355.801 345.832 357.256 341.996 359.779 338.746C360.103 338.328 360.551 338.103 361.036 338.031C361.133 335.418 361.517 332.779 361.815 330.195L361.901 329.421C362.201 326.613 362.911 323.183 361.537 320.552C360.239 318.068 357.261 316.315 355.056 314.629L353.255 313.232M223.935 278.564C222.783 279.231 221.707 280.06 220.731 281.096C217.657 284.359 215.46 288.419 213.321 292.325C212.17 294.428 211.06 296.555 209.899 298.654C209.394 299.567 208.875 300.47 208.35 301.372C208.107 301.787 207.386 302.613 207.028 303.122C207.426 303.679 207.836 304.227 208.255 304.77C208.415 304.977 219.441 316.995 223.284 321.699C229.169 328.904 234.429 336.514 238.927 344.66C243.33 352.637 246.683 361.083 250.763 369.214C252.805 373.285 255.085 377.327 257.992 380.85C258.104 380.987 258.222 381.117 258.337 381.253C259.447 378.254 262.289 375.043 263.685 373.199L263.816 373.025C266.982 368.754 270.326 364.611 273.743 360.539C276.863 356.821 280.063 353.182 283.341 349.604L284.574 348.265C286.857 345.797 289.757 342.104 293.1 340.34C292.742 339.702 292.327 339.07 291.851 338.446C288.719 334.351 284.292 331.378 279.923 328.697L277.09 326.972C266.411 320.46 255.899 313.646 246.628 305.185C241.723 300.708 236.886 296.019 232.763 290.797L231.305 288.95M241.753 275.341C236.752 275.76 231.352 275.661 226.731 277.291C230.839 281.177 234.744 285.374 238.756 289.326C239.113 286.653 239.843 284.013 240.461 281.407" fill="#FF0048"/>
<path fill-rule="evenodd" clip-rule="evenodd" d="M292.777 3.22987C303.667 1.02987 314.85 -0.339015 325.972 0.0730483L326.83 0.106387C335.198 0.441181 345.795 1.18178 353.095 6.05286C353.515 5.63102 354.19 5.41451 354.803 5.70714C363.478 9.85222 373.019 12.8491 382.153 15.8271C391.245 18.7905 400.678 20.7468 410.207 21.5353C413.793 21.8321 416.861 25.7076 414.591 29.1836C414.051 30.0119 413.525 30.8486 413.001 31.6874C413.877 31.5959 414.753 31.5016 415.63 31.4129C418.513 31.1224 421.394 34.2031 421.223 37.0135C421.116 38.7812 420.926 40.5279 420.644 42.2537C421.742 42.2306 422.834 42.3955 423.889 42.8418C429.23 45.0997 428.858 51.4685 428.458 56.3141C427.904 63.0385 425.392 70.1609 420.727 75.1936C424.21 78.8149 426.676 83.1395 428.146 88.2756C429.213 92.0261 429.807 96.021 429.514 99.9251L429.421 101.094C429.058 105.331 428.338 110.021 425.293 113.069C423.73 114.641 421.805 115.213 419.969 115.032C421.079 124.796 421.791 134.615 422.46 144.4L422.775 149.077C424.269 171.691 425.391 194.453 425.098 217.105C424.825 238.274 420.646 258.821 407.677 276.009C395.864 291.66 378.905 303.198 359.719 307.584C349.379 309.952 338.823 310.119 328.358 308.611C323.285 307.878 318.179 306.753 313.364 304.979C308.035 303.01 304.205 300.111 300.619 295.767C298.923 293.707 299.739 289.321 303.116 289.733C308.224 290.353 312.887 291.1 317.784 292.612L318.485 292.834C323.363 294.398 328.414 295.565 333.513 296.06C343.958 297.073 354.562 296.053 364.567 292.883C380.858 287.714 394.888 276.198 403.881 261.726C414.556 244.573 415.763 225.102 415.609 205.378C415.443 183.736 414.74 162.081 413.592 140.46L413.397 136.857C412.79 125.731 412.204 114.599 411.688 103.466C411.528 99.974 411.284 96.454 410.843 92.9689C406.819 90.6083 403.212 87.3537 400.86 83.3378C396.137 85.2934 391.17 86.7042 386.599 87.8286C376.013 90.4351 365.022 91.0678 354.246 89.4357C351.34 90.6376 348.375 91.6943 345.365 92.6037C344.552 92.9647 343.738 93.3195 342.926 93.6673C335.669 96.7753 328.309 99.4083 320.649 101.336L318.767 101.806C314.736 102.8 310.357 103.78 306.067 104.088C305.363 104.36 304.602 104.591 303.771 104.793C299.865 105.743 295.811 106.043 291.807 105.708C287.906 105.38 285.088 101.434 287.236 97.7391C288.806 95.0432 290.391 92.3543 291.988 89.6724C286.428 91.9912 280.686 93.9188 274.895 95.5531C269.049 97.2013 263.119 98.5912 257.181 99.8693C254.006 100.547 250.819 101.147 247.651 101.825C245.384 102.307 241.902 102.558 240.053 104.053C238.009 105.694 237.43 109.521 236.655 111.882C235.636 114.948 234.681 118.028 233.809 121.143C232.072 127.359 230.649 133.665 229.546 140.035C228.444 146.411 227.704 152.851 227.292 159.311C226.881 165.765 227.062 172.26 226.4 178.685C226.043 182.093 222.388 183.846 219.688 181.465C219.372 181.185 219.052 180.903 218.736 180.617L218.265 180.187C215.955 178.091 213.716 175.871 211.867 173.37C211.533 172.909 211.212 172.427 210.912 171.938C210.863 171.938 210.821 171.924 210.772 171.89L210.26 171.504C204.617 167.299 195.19 161.818 189.688 168.803C187.935 171.028 187.037 173.861 186.292 176.594L184.985 181.486C184.14 184.68 183.344 187.891 182.878 191.159C181.825 198.478 182.355 206.915 187.386 212.782C189.395 215.128 192.165 216.805 195.255 217.245C196.979 217.482 198.681 217.189 200.391 216.972C202.128 216.756 203.802 217.105 205.54 216.937C208.302 216.665 209.509 219.975 208.477 222.057C207.919 223.174 207.262 224.138 206.516 224.955C207.116 225.472 207.688 226.031 208.24 226.617C209.872 227.141 211.336 228.265 212.433 229.753C213.319 230.954 213.778 232.26 213.856 233.636C213.953 233.978 214.036 234.328 214.114 234.684L215.611 237.116C215.94 237.649 216.268 238.176 216.597 238.693C220.406 244.699 224.635 249.784 229.888 254.575C234.946 259.184 240.436 263.312 245.188 268.257L245.748 268.844C250.178 273.517 254.848 279.174 253.114 285.968C252.667 287.714 250.232 288.972 248.642 287.791C243.528 283.992 240.953 277.971 236.614 273.362C232.148 268.613 227.202 264.345 222.723 259.61C218.488 255.14 215.146 250.077 212.628 244.504C211.623 245.614 210.158 246.403 208.128 246.711C204.64 247.234 201.388 245.188 199.867 242.164C198.89 242.597 197.893 242.988 196.888 243.295C191.599 244.916 188.272 239.028 190.267 234.677C191.334 232.344 192.667 230.319 194.321 228.615C189.15 227.902 183.89 225.227 180.492 221.889C171.967 213.501 170.795 200.895 172.714 189.685C173.733 183.742 175.49 177.728 177.772 172.148C178.169 171.177 178.595 170.199 179.062 169.236C178.804 169.229 178.539 169.117 178.371 168.9C176.83 166.791 174.953 165.066 173.809 162.705C172.755 160.54 171.584 158.347 170.753 156.091C169.044 151.475 168.207 146.265 167.649 141.383C166.498 131.389 166.943 121.457 168.472 111.526C171.074 94.6102 177.358 78.4224 186.617 64.2181C186.113 63.9529 185.63 63.6328 185.18 63.2542L184.957 63.0601L184.596 62.7332C181.954 60.3398 182.182 55.8539 184.596 53.4297L185.358 52.6647C186.324 51.7046 187.156 50.9439 188.716 49.8985C188.946 49.7442 189.181 49.5989 189.419 49.4634C188.603 47.9534 188.32 46.1878 188.888 44.24C190.87 37.4542 200.623 37.6944 206.805 40.6536C213.644 34.5432 221.228 29.2388 229.448 24.9435C249.026 14.7188 271.162 7.58797 292.777 3.22987ZM191.579 181.954C195.235 180.759 200.091 183.267 203.377 184.775C207.542 186.689 211.086 189.517 214.519 192.507C216.228 194.001 216.534 196.446 216.109 198.534C216.067 198.744 216.026 198.96 215.976 199.177C215.523 201.404 213.039 203.157 210.841 203.095C206.244 202.969 204.054 198.995 201.451 195.629C201.144 196.173 200.761 196.676 200.286 197.053L199.965 197.305C198.885 198.128 197.694 198.786 196.267 198.723C195.255 198.674 194.286 198.415 193.392 197.947C191.16 196.767 190.177 193.876 190.783 191.522C191.16 190.041 192.025 188.882 193.155 188.079L192.734 187.79C191.833 187.162 191.01 186.5 190.37 185.523L190.225 185.292H190.281C189.583 184.091 190.037 182.457 191.579 181.954Z" fill="#FF0048"/>
<path fill-rule="evenodd" clip-rule="evenodd" d="M346.869 253.835C342.496 252.057 338.594 249.09 335.742 245.301C334.75 243.984 334.493 242.593 334.701 241.32C334.935 239.89 335.784 238.593 336.942 237.723C338.103 236.851 339.556 236.421 340.961 236.64C342.181 236.831 343.396 237.497 344.358 238.878L344.559 239.155C346.255 241.442 348.465 243.318 350.983 244.528C353.41 245.694 356.124 246.238 358.933 245.921C364.283 245.319 367.97 242.435 371.889 238.518C372.375 238.024 372.861 237.514 373.35 236.996C373.658 236.526 374.086 236.224 374.562 236.066C375.089 235.89 375.686 235.9 376.233 236.09C376.76 236.274 377.232 236.621 377.548 237.084C377.849 237.524 378.019 238.067 377.964 238.692C377.605 242.751 375.476 246.373 372.452 249.217C369.094 252.376 364.642 254.562 360.451 255.328C355.834 256.172 351.129 255.568 346.869 253.835V253.835ZM362.63 191.22C367.542 194.196 375.027 201.137 369.742 208.516C363.522 215.022 354.566 207.562 350.153 204.188C346.06 201.574 341.462 208.299 345.259 211.352C377.15 234.888 390.092 191.998 365.114 187.72C362.364 187.249 361.343 190.299 362.63 191.22ZM305.481 163.841C306.024 157.125 316.284 155.6 317.305 162.246C318.219 168.199 317.143 173.667 314.453 179.027C311.883 184.147 305.423 181.758 304.934 177.096C304.279 170.846 305.143 168.019 305.481 163.841ZM383.585 160.868C385.015 159 387.08 157.725 389.555 158.446C397.286 160.698 395.008 171.64 392.292 176.965C390.817 179.858 386.048 180.591 383.893 178.044C380.38 173.892 378.698 165.598 383.164 161.508C383.285 161.297 383.419 161.083 383.585 160.868ZM314.344 134.455L315.565 134.242C319.343 133.591 324.041 132.965 326.713 135.993C328.131 137.598 328.619 140.583 326.713 142.12C323.362 144.824 319.657 143.776 315.64 144.005C312.331 144.194 309.149 144.74 305.961 145.648C298.967 147.641 293.268 151.279 287.294 155.274C286.51 155.798 285.71 154.798 286.084 154.067C289.532 147.334 296.215 141.804 302.909 138.432C306.482 136.633 310.391 135.14 314.344 134.455ZM376.537 131.439L377.471 131.63C387.644 133.75 400.86 137.984 405.677 147.944C405.861 149.352 405.667 149.654 405.509 149.851L405.456 149.917C405.327 150.085 405.223 150.317 404.61 150.509C404.441 150.469 404.269 150.426 404.095 150.381C401.887 149.804 400.14 149.009 398.449 148.184L396.615 147.284C394.488 146.244 392.341 145.242 390.067 144.502C385.212 142.924 380.219 141.812 375.149 141.218C374.05 141.09 372.992 140.72 372.157 140.086C371.365 139.485 370.759 138.652 370.483 137.545C370.125 136.113 370.228 135.028 370.999 133.736C371.579 132.765 372.409 132.093 373.361 131.706C374.332 131.313 375.438 131.22 376.537 131.439Z" fill="#FF0048"/>
</svg>
